<?xml version="1.0" standalone="no"?>
<!DOCTYPE svg PUBLIC "-//W3C//DTD SVG 20010904//EN"
 "http://www.w3.org/TR/2001/REC-SVG-20010904/DTD/svg10.dtd">
<svg version="1.0" xmlns="http://www.w3.org/2000/svg"
 width="276.000000pt" height="276.000000pt" viewBox="0 0 276.000000 276.000000"
 preserveAspectRatio="xMidYMid meet">

<g transform="translate(0.000000,276.000000) scale(0.100000,-0.100000)"
fill="#000000" stroke="none">
<path d="M698 2064 c-13 -12 5 -34 28 -34 24 0 24 -2 24 -90 0 -83 2 -90 20
-90 17 0 19 8 22 88 l3 87 33 3 c25 3 32 8 30 20 -3 14 -17 18 -79 20 -41 1
-78 0 -81 -4z"/>
<path d="M897 2063 c-4 -3 -7 -53 -7 -110 0 -95 1 -103 19 -103 16 0 20 8 23
43 3 41 4 42 38 42 34 0 35 -1 38 -42 3 -35 7 -43 23 -43 19 0 20 6 17 108 -3
99 -4 107 -23 107 -17 0 -19 -6 -17 -42 l4 -43 -41 0 -41 0 0 45 c0 43 -14 58
-33 38z"/>
<path d="M1100 1960 l0 -110 71 0 c62 0 70 2 67 18 -2 13 -15 18 -51 20 -42 3
-47 5 -47 28 0 22 4 24 45 24 38 0 45 3 45 20 0 17 -7 20 -45 20 -41 0 -45 2
-45 25 0 23 4 25 45 25 38 0 45 3 45 20 0 18 -7 20 -65 20 l-65 0 0 -110z"/>
<path d="M1722 1741 c-13 -3 -31 -18 -39 -33 -15 -24 -15 -28 0 -52 10 -14 30
-29 45 -32 15 -4 37 -13 50 -21 19 -11 21 -17 11 -29 -22 -26 -69 -16 -82 19
-10 26 -37 21 -37 -6 0 -66 111 -91 153 -36 31 42 13 80 -46 99 -65 21 -77 36
-42 52 24 11 29 10 45 -10 22 -26 50 -29 50 -4 0 25 -12 39 -43 51 -31 12 -31
12 -65 2z"/>
<path d="M680 1630 c0 -103 1 -110 20 -110 18 0 20 7 20 87 0 105 10 103 19
-4 l6 -78 30 0 30 0 11 100 11 100 2 -102 c1 -84 4 -103 16 -103 12 0 15 19
15 110 l0 110 -34 0 -33 0 -7 -61 c-3 -34 -6 -77 -6 -95 0 -19 -4 -34 -9 -34
-5 0 -9 6 -8 13 0 6 -1 49 -1 95 l-2 82 -40 0 -40 0 0 -110z"/>
<path d="M925 1728 c-3 -7 -12 -47 -21 -88 -9 -41 -19 -85 -21 -97 -4 -18 -1
-23 15 -23 14 0 22 8 24 23 2 18 10 23 45 25 38 3 43 1 49 -22 4 -17 13 -26
25 -26 23 0 23 3 0 92 -11 40 -22 85 -25 101 -6 24 -11 27 -47 27 -23 0 -42
-5 -44 -12z m62 -68 l10 -50 -29 0 c-23 0 -28 4 -24 18 2 9 7 32 11 50 9 46
21 40 32 -18z"/>
<path d="M1080 1727 c0 -7 4 -17 9 -22 16 -16 17 -135 1 -145 -7 -4 -10 -15
-7 -24 5 -12 20 -16 60 -16 45 0 59 4 81 26 22 23 26 35 26 84 0 43 -5 64 -21
84 -18 23 -27 26 -85 26 -46 0 -64 -4 -64 -13z m118 -39 c16 -16 15 -90 -1
-112 -7 -10 -21 -17 -31 -15 -16 3 -18 14 -18 67 1 34 1 64 1 67 2 10 37 5 49
-7z"/>
<path d="M1290 1630 c0 -102 1 -110 19 -110 16 0 20 8 23 43 3 37 6 42 28 42
22 0 26 -5 30 -40 4 -32 9 -40 25 -40 17 0 20 6 18 40 0 22 -4 47 -8 56 -3 10
-2 20 4 24 17 10 13 60 -7 78 -13 12 -37 17 -75 17 l-57 0 0 -110z m107 54 c7
-19 -5 -31 -37 -36 -21 -2 -26 2 -28 25 -3 24 0 27 28 27 19 0 33 -6 37 -16z"/>
<path d="M1496 1653 c-11 -49 -21 -98 -24 -110 -3 -18 0 -23 16 -23 14 0 22 8
24 23 2 18 10 23 44 25 37 3 42 0 48 -22 4 -17 13 -26 26 -26 11 0 20 2 20 5
0 3 -12 53 -26 110 l-26 105 -42 0 -42 0 -18 -87z m74 50 c0 -10 3 -35 6 -55
6 -36 5 -38 -20 -38 -14 0 -26 2 -26 5 0 2 5 27 11 55 10 48 29 69 29 33z"/>
<path d="M693 1403 c-4 -9 -1 -19 5 -21 15 -5 16 -138 2 -147 -5 -3 -10 -13
-10 -21 0 -11 15 -14 63 -14 53 0 67 4 85 23 27 29 28 41 1 66 l-21 19 21 21
c27 27 26 37 -4 66 -20 21 -34 25 -80 25 -43 0 -57 -4 -62 -17z m117 -38 c17
-20 4 -35 -31 -35 -24 0 -29 4 -29 25 0 20 5 25 24 25 13 0 29 -7 36 -15z m0
-90 c17 -20 4 -35 -31 -35 -21 0 -29 5 -29 18 0 10 3 22 7 25 11 12 40 8 53
-8z"/>
<path d="M900 1311 c0 -104 1 -111 20 -111 17 0 20 7 20 40 0 38 2 40 30 40
28 0 30 -2 30 -40 0 -33 3 -40 20 -40 17 0 20 7 20 43 0 24 -5 48 -10 53 -8 8
-6 15 5 24 19 15 19 50 1 75 -10 13 -30 20 -75 23 l-61 4 0 -111z m100 54 c19
-23 4 -45 -30 -45 -27 0 -30 3 -30 30 0 25 4 30 24 30 13 0 29 -7 36 -15z"/>
<path d="M1125 1408 c-3 -7 -13 -49 -24 -93 -10 -44 -22 -88 -26 -97 -6 -14
-2 -18 18 -18 16 0 26 7 30 20 4 16 14 20 45 20 31 0 41 -4 45 -20 3 -12 14
-20 26 -20 18 0 20 4 15 28 -4 15 -10 34 -14 42 -4 8 -13 45 -20 83 l-12 67
-39 0 c-23 0 -42 -5 -44 -12z m60 -85 c6 -41 6 -43 -19 -43 -30 0 -30 1 -15
72 13 58 20 51 34 -29z"/>
<path d="M1287 1414 c-4 -4 -7 -54 -7 -111 0 -96 1 -103 20 -103 19 0 20 7 20
102 0 56 3 99 6 95 4 -3 11 -48 18 -99 l11 -93 43 -3 43 -3 -3 108 c-3 92 -5
108 -20 111 -15 3 -18 -8 -20 -95 -3 -104 -11 -97 -25 22 l-8 70 -35 3 c-20 2
-39 0 -43 -4z"/>
<path d="M1474 1405 c-5 -11 -1 -21 9 -27 23 -12 25 -133 2 -142 -8 -3 -15
-12 -15 -21 0 -12 13 -15 64 -15 58 0 67 3 86 28 19 23 21 37 18 90 -5 80 -19
94 -98 100 -50 4 -61 2 -66 -13z m114 -37 c7 -7 12 -33 12 -58 0 -49 -13 -70
-42 -70 -16 0 -18 9 -18 70 0 61 2 70 18 70 10 0 23 -5 30 -12z"/>
<path d="M1680 1400 c0 -15 6 -20 25 -20 24 0 25 -2 25 -69 0 -64 -2 -70 -22
-73 -13 -2 -24 -11 -26 -20 -3 -16 6 -18 73 -18 67 0 76 2 73 18 -2 10 -14 18
-31 20 -28 3 -28 4 -25 70 3 65 4 67 31 70 20 3 27 8 25 20 -3 14 -17 18 -76
20 -67 3 -72 1 -72 -18z"/>
<path d="M1877 1414 c-4 -4 -7 -54 -7 -111 0 -96 1 -103 20 -103 19 0 20 7 21
98 1 111 13 101 24 -20 l8 -78 44 0 44 0 -3 108 c-3 99 -4 107 -23 107 -19 0
-20 -6 -17 -82 2 -48 0 -83 -6 -83 -5 0 -13 37 -18 83 l-9 82 -35 3 c-20 2
-39 0 -43 -4z"/>
<path d="M2085 1394 c-21 -22 -25 -37 -25 -86 0 -52 3 -63 29 -89 34 -33 52
-36 77 -12 13 13 19 14 22 5 2 -6 10 -12 17 -12 9 0 14 17 17 51 1 28 1 53 -1
55 -2 2 -24 4 -48 4 -36 0 -43 -3 -43 -20 0 -15 7 -20 25 -20 28 0 34 -24 9
-34 -24 -9 -31 -8 -48 10 -19 19 -22 104 -4 122 20 20 59 15 65 -8 3 -11 14
-20 24 -20 25 0 25 34 -1 60 -30 30 -85 27 -115 -6z"/>
<path d="M733 1088 c-30 -15 -47 -70 -39 -132 7 -61 31 -86 86 -86 41 0 68 22
72 60 4 34 -25 38 -40 5 -18 -39 -63 -32 -75 12 -13 43 -1 100 22 108 25 8 49
-3 56 -26 6 -19 45 -27 45 -9 0 26 -26 60 -53 70 -36 12 -45 12 -74 -2z"/>
<path d="M932 1090 c-29 -12 -42 -48 -42 -114 0 -72 26 -106 80 -106 54 0 80
34 80 107 0 99 -45 142 -118 113z m66 -42 c14 -14 16 -106 3 -126 -5 -8 -21
-12 -37 -10 -28 3 -29 5 -32 61 -3 61 8 87 37 87 9 0 22 -5 29 -12z"/>
<path d="M1072 983 c3 -93 5 -108 21 -111 15 -3 17 7 17 94 0 54 2 95 5 92 3
-3 9 -45 13 -94 l7 -89 30 0 30 0 11 95 11 95 2 -98 c1 -88 3 -98 19 -95 15 3
17 18 20 111 l3 107 -41 0 -40 0 -1 -47 c0 -27 -4 -70 -8 -98 -7 -48 -8 -46
-15 48 l-8 97 -40 0 -39 0 3 -107z"/>
<path d="M1290 980 c0 -103 1 -110 20 -110 17 0 20 7 20 45 l0 45 39 0 c43 0
71 26 71 65 0 11 -7 31 -16 43 -13 19 -24 22 -75 22 l-59 0 0 -110z m107 54
c7 -20 -20 -43 -45 -40 -10 2 -18 14 -20 29 -3 24 0 27 28 27 19 0 33 -6 37
-16z"/>
<path d="M1496 1008 c-31 -140 -31 -138 -8 -138 14 0 22 8 24 23 2 18 10 23
44 25 37 3 42 0 48 -22 4 -18 13 -26 27 -26 17 0 20 4 15 23 -4 12 -16 61 -27
110 l-21 87 -42 0 -42 0 -18 -82z m78 21 c11 -58 8 -69 -20 -69 -24 0 -25 3
-19 33 16 77 28 89 39 36z"/>
<path d="M1672 983 c3 -93 5 -108 21 -111 15 -3 17 6 17 92 0 108 14 128 24
34 14 -129 14 -128 57 -128 l39 0 0 110 c0 103 -1 110 -20 110 -19 0 -20 -7
-21 -97 -1 -103 -10 -89 -24 40 l-6 57 -45 0 -45 0 3 -107z"/>
<path d="M1887 1033 c15 -32 29 -80 32 -108 5 -42 10 -51 29 -53 20 -3 22 1
22 41 0 31 10 65 33 111 l34 66 -29 0 c-23 0 -31 -7 -44 -37 l-17 -38 -16 37
c-13 30 -21 38 -43 38 l-27 0 26 -57z"/>
<path d="M2120 914 c-11 -12 -10 -18 3 -31 8 -9 23 -13 31 -10 21 8 21 43 0
51 -21 8 -20 8 -34 -10z"/>
</g>
</svg>
